<svg xmlns="http://www.w3.org/2000/svg" xmlns:xlink="http://www.w3.org/1999/xlink"><g transform="translate(-169.7564113669031 -633.8533324380636)" ><path d="M545.78 851.98c0 88.36-71.64 160-160 160-88.37 0-160-71.64-160-160 0-88.37 71.63-160 160-160 88.36 0 160 71.63 160 160z" fill="#b0bec5"/><path d="M387.33 993.2c-78 0-141.24-63.23-141.24-141.23s63.22-141.24 141.23-141.24z" stroke="#546e7a" stroke-width="10" fill-opacity="0"/><path d="M388.68 982.7c0 .4-.32.7-.7.7h-.72c-72.67 0-131.58-58.9-131.58-131.57 0-72.67 58.9-131.58 131.58-131.58h.7c.4 0 .72.3.72.7z" stroke="#546e7a" stroke-width="10" fill-opacity="0"/><path d="M389.7 972.15c0 .73-.6 1.32-1.34 1.32h-1.32c-67.16 0-121.6-54.44-121.6-121.6 0-67.15 54.44-121.6 121.6-121.6h1.32c.74 0 1.33.6 1.33 1.33z" stroke="#546e7a" stroke-width="10" fill-opacity="0"/><path d="M396.1 986.64v-278.9M396.1 986.5v5.14M396.1 707.87v-5.13M386.34 997V706.65M386.34 996.86v5.13M386.34 706.8v-5.14" stroke="#b0bec5" stroke-width="10" fill="none"/><path d="M275.83 938c-47.54-61.86-35.94-150.53 25.9-198.07C363.6 692.4 452.27 704 499.8 765.83z" stroke="#546e7a" stroke-width="10" fill-opacity="0"/><path d="M504.7 931.25c-43.78 64.55-131.6 81.4-196.16 37.6-64.56-43.78-81.4-131.6-37.6-196.16z" stroke="#546e7a" stroke-width="10" fill-opacity="0"/><path d="M505.25 931.96L286.65 783.8M505.14 931.88l4.25 2.88M286.76 783.86l-4.25-2.88M506.9 929.64L288.33 781.47M506.8 929.56l4.25 2.88M288.42 781.54l-4.24-2.88M500.7 765.88L291.5 926.48M500.6 765.96l4.06-3.12M291.63 926.42l-4.07 3.12M500.08 765.14L298.42 919.5M499.98 765.22l4.07-3.12M298.52 919.42l-4.07 3.12" stroke="#b0bec5" stroke-width="10" fill="none"/><path d="M288.37 783.16c-.58-.45-.7-1.28-.25-1.86l.8-1.06c40.66-53.45 116.95-63.82 170.4-23.16 53.46 40.66 63.83 116.95 23.17 170.4l-.8 1.06c-.46.58-1.3.7-1.87.25z" stroke="#b0bec5" stroke-width="10" fill-opacity="0"/><path d="M476.18 770.48c.55-.48 1.4-.42 1.87.14l.86 1c43.7 51 37.8 127.76-13.2 171.47-50.98 43.7-127.75 37.78-171.45-13.2l-.86-1.02c-.5-.56-.43-1.4.13-1.87z" stroke="#b0bec5" stroke-width="10" fill-opacity="0"/><path d="M264.7 726.25c0-3.32 2.7-6 6-6h228c3.32 0 6 2.68 6 6v254c0 3.3-2.68 6-6 6h-228c-3.3 0-6-2.7-6-6z" stroke="#000" stroke-opacity="0" stroke-width="3" fill="#fff" fill-opacity="0"/><use xlink:href="#a" transform="matrix(1,0,0,1,269.7080573180033,725.2480327980088) translate(50.98958333333333 194.625)"/><defs><path fill="#546e7a" d="M1018 0H770c-49-215-106-420-154-636C567-419 511-214 459 0H211L0-1349h259c35 320 94 617 105 961 37-206 100-393 154-583h195c54 191 118 375 154 583 14-339 68-641 102-961h259" id="b"/><use transform="matrix(0.10416666666666667,0,0,0.10416666666666667,0,0)" xlink:href="#b" id="a"/></defs></g></svg>